<?xml version="1.0" encoding="UTF-8" standalone="no"?>
<svg
   xmlns:dc="http://purl.org/dc/elements/1.1/"
   xmlns:cc="http://creativecommons.org/ns#"
   xmlns:rdf="http://www.w3.org/1999/02/22-rdf-syntax-ns#"
   xmlns:svg="http://www.w3.org/2000/svg"
   xmlns="http://www.w3.org/2000/svg"
   xmlns:sodipodi="http://sodipodi.sourceforge.net/DTD/sodipodi-0.dtd"
   xmlns:inkscape="http://www.inkscape.org/namespaces/inkscape"
   version="1.0"
   width="93.000000pt"
   height="210.000000pt"
   viewBox="0 0 93.000000 210.000000"
   preserveAspectRatio="xMidYMid meet"
   id="svg6"
   sodipodi:docname="manndef.svg"
   inkscape:version="0.92.2 5c3e80d, 2017-08-06">
  <metadata
     id="metadata12">
    <rdf:RDF>
      <cc:Work
         rdf:about="">
        <dc:format>image/svg+xml</dc:format>
        <dc:type
           rdf:resource="http://purl.org/dc/dcmitype/StillImage" />
        <dc:title />
      </cc:Work>
    </rdf:RDF>
  </metadata>
  <defs
     id="defs10" />
  <sodipodi:namedview
     pagecolor="#ffffff"
     bordercolor="#666666"
     borderopacity="1"
     objecttolerance="10"
     gridtolerance="10"
     guidetolerance="10"
     inkscape:pageopacity="0"
     inkscape:pageshadow="2"
     inkscape:window-width="1440"
     inkscape:window-height="803"
     id="namedview8"
     showgrid="false"
     inkscape:zoom="2.1071429"
     inkscape:cx="62"
     inkscape:cy="140"
     inkscape:window-x="89"
     inkscape:window-y="0"
     inkscape:window-maximized="0"
     inkscape:current-layer="g4" />
  <g
     transform="matrix(0.1,0,0,-0.1,4.8779288,208.85161)"
     id="g4"
     style="fill:#000000;stroke:none">
    <path
       style="stroke-width:1"
       d="m 45.428543,1123.1545 c -7.301535,-11.8618 -17.745405,-23.4168 -33.823245,-40.5908 -50.000001,-53 -54.990236,-64.001 -24.990233,-56.001 18.0000001,5 19.9951126,0 19.9951126,-52.99805 0,-60.99998 14.0039104,-85.00388 44.0039104,-74.00385 9,3 15.99609,15.99315 15.99609,27.99315 0,17.00002 2.004885,18.00585 10.004887,6.00585 4.999995,-8.00003 10.993163,-12.00488 12.993158,-10.00485 10.000005,12 26.997077,102.99805 26.997077,142.99795 0,9.8483 1.37259,20.326 3.95508,31.7286 -0.64733,0.3075 -2.84348,1.408 -1.875,1.0693 -0.48615,0.2663 -0.98012,0.5228 -1.46485,0.791 0,0 0,0.015 0,0.015 0,0 -0.015,0 -0.015,0 -0.66292,0.2843 -3.47932,3.3177 -1.81641,1.0548 1.60091,-0.979 -0.90732,0.3997 -1.20117,0.615 -0.31665,0.162 -0.92334,0.4455 -0.99609,0.5422 -0.34755,0.094 -0.97249,0.243 -1.33301,0.4103 -1.21352,0.5632 -1.0864,0.5257 -1.18652,0.5857 -2.04509,0.6675 -0.82776,0.4815 -2.43164,1.084 -1.3997,0.6345 -1.67425,0.735 -2.90039,1.1865 -1.06704,0.4605 -2.16376,0.8985 -3.20801,1.4062 -0.1089,0.053 0.23542,-0.068 0.35152,-0.1027 -1.13047,0.3885 -2.23319,0.8508 -3.310545,1.3623 -1.151692,0.4612 -2.352855,0.9004 -3.691402,1.3915 -1.202925,0.5888 -2.477475,1.0002 -3.735353,1.4502 -1.475925,0.5678 -2.973232,1.0751 -4.467772,1.5821 -1.792763,0.5047 -3.57768,1.0793 -5.346683,1.6552 -1.71276,0.4643 -3.38505,1.0403 -5.068357,1.5968 -1.68588,0.5025 -3.36381,1.0103 -5.05371,1.4941 -1.815893,0.4447 -3.635123,0.9107 -5.46387,1.3037 -1.51554,0.4627 -3.091455,0.6832 -4.62891,1.0547 -1.464165,0.2895 -2.93838,0.5318 -4.394528,0.8642 -1.313767,0.3495 -2.703442,0.4433 -4.01367,0.835 -1.276815,0.3195 -2.568982,0.5618 -3.837892,0.8789 -1.344158,0.2858 -2.693408,0.5055 -4.042965,0.747 z"
       id="path942"
       inkscape:connector-curvature="0" />
    <path
       style="stroke-width:1"
       d="m 782.87483,1136.9094 c -1.63695,-0.4568 -3.22747,-1.1162 -4.87792,-1.5381 -1.75215,-0.5138 -3.51263,-0.9899 -5.24415,-1.5674 -2.06843,-0.8862 -4.1871,-1.6082 -6.28418,-2.417 -2.06857,-0.7267 -4.11217,-1.508 -6.18165,-2.2265 -2.3232,-0.9027 -4.70032,-1.6862 -7.01662,-2.6075 -2.10308,-0.7372 -4.15275,-1.5712 -6.22553,-2.3877 -1.74967,-0.501 -3.22485,-1.8577 -4.878,-2.5927 -1.8945,-1.0348 -3.79545,-2.0423 -5.625,-3.1934 -1.86075,-0.958 -3.6036,-2.1406 -5.46382,-3.1054 -1.6146,-1.004 -3.24645,-1.9472 -4.79003,-3.0616 -1.57335,-1.1191 -3.2496,-2.055 -4.81935,-3.1787 -1.5441,-0.7598 -2.69107,-2.249 -4.33597,-2.8564 -0.7707,-0.4942 -1.51433,-1.0268 -2.27048,-1.5381 2.74208,-11.1532 4.07925,-20.8465 3.75,-29.0772 -0.99997,-19.9999 3.00488,-62.0068 10.00485,-92.00675 11.99993,-58.00005 27.99323,-87.9903 27.99323,-54.9903 0,17.00002 1.99312,15.9903 12.99315,-5.0097 30,-59.00003 75.0069,-8.99123 62.00685,69.00877 -6,36.99998 -4.99613,38.99898 14.00385,33.99898 33,-9 25.002,12.9961 -22.998,60.9961 -21.68535,21.1432 -33.0501,33.7826 -39.74123,49.3506 z"
       id="path940"
       inkscape:connector-curvature="0" />
    <path
       style="fill:#000000;fill-opacity:1;stroke-width:1"
       d="m 589.19319,154.46797 c -1.21392,-0.7716 -2.41669,-1.53645 -3.76465,-2.10937 -2.58766,-1.19018 -5.225,-2.1894 -7.9541,-3.04688 -0.8896,-0.159 -4.2787,-1.61715 -4.6582,-1.5234 -2.80491,-0.975 -5.63613,-1.62225 -8.62794,-1.40625 -1.59481,-7e-5 -3.19521,1.5e-4 -4.79004,0 -1.80016,-2.2e-4 -3.59044,4.5e-4 -5.39062,0 -1.91599,-9.7e-4 -3.84084,0.005 -5.75684,0 -2.21367,-0.007 -4.42215,-0.0225 -6.63573,-0.045 -2.1093,-0.0225 -4.21871,-0.0675 -6.32813,-0.045 -2.61353,0.0923 -4.68548,0.52275 -7.13379,0.83498 -1.78415,0.28425 -4.61875,0.72375 -5.81543,1.20112 -2.97954,0.1905 -5.96004,0.477 -8.87696,1.14263 -2.59419,0.6675 -5.18157,1.13947 -7.95409,1.33297 -1.48726,0.26925 -2.94921,0.6585 -4.40918,1.0254 3.50394,-105.979198 7.53192,-124.692298 16.50879,-134.267548 12.99999,-12 21.00488,-13.006875 55.00488,-2.00685 45,15 54,39.99705 30,86.997078 -6.72901,12.8463 -11.18026,30.59632 -13.41797,51.91402 z"
       id="path938"
       inkscape:connector-curvature="0" />
    <path
       id="path936"
       style="fill:#000000;fill-opacity:1;stroke-width:1"
       d="m 624.2176,421.15747 c -1.5352,-0.8685 -3.07716,-1.72815 -4.70215,-2.41702 -4.22325,-2.09033 -8.63187,-3.7947 -13.00781,-5.5371 -4.63531,-1.33823 -9.08797,-3.2892 -13.85742,-4.14548 -5.47968,-1.08472 -10.98669,-1.28572 -16.56738,-1.05472 -4.76384,0.0525 -9.5387,0.108 -14.29688,0.366 -4.66975,0.273 -9.33041,0.71325 -13.95996,1.39162 -4.61902,0.6525 -9.26385,0.933 -13.90137,1.4355 -4.82319,0.5295 -9.66982,0.55125 -14.47266,1.2891 -4.0467,0.8517 -8.19405,1.15035 -12.27538,1.7871 -3.97221,0.82418 -8.02988,1.13873 -12.05567,1.6113 2.06721,-110.93835 3.69975,-187.46062 5.39063,-244.27732 2.78505,-0.4755 5.47069,-1.44998 8.26171,-1.88963 3.18594,-0.16425 6.22321,-0.921 9.31641,-1.626 1.80006,-0.35325 3.63603,-0.50175 5.46387,-0.615 2.55919,-0.36 5.05007,-1.005 7.60254,-1.40625 1.59555,-0.13875 3.12471,-0.57075 4.7168,-0.60075 1.85137,0 3.70048,0.0375 5.55175,0.06 2.26039,0.0225 4.52176,0.0225 6.78223,0.03 1.93001,0.007 3.85613,0.015 5.78613,0.015 1.8039,9e-4 3.60137,0 5.40527,0 1.5954,1.5e-4 3.19466,0 4.79004,0 1.57163,-0.141 3.29962,0.17175 1.64063,0.075 3.2425,0.84555 3.72673,1.33883 6.88477,2.25585 1.54494,0.58425 3.08883,1.09755 4.5996,1.83105 0.2196,-0.0832 2.15195,1.0581 2.60742,1.31835 1.03854,0.78608 2.17718,1.39425 3.38379,1.875 0.33788,0.3015 0.6693,0.609 0.9961,0.92288 0.46005,0.44175 -0.11932,-0.0525 -0.92285,-0.71775 0.4308,0.534 0.91657,0.95212 1.40625,1.36237 -0.25058,-0.31725 -0.40433,-0.61725 -0.70313,-1.25977 0.32573,0.1125 0.63593,0.27 0.9668,0.366 0.34312,0.0998 1.36741,0.39225 1.04004,0.249 -0.65723,-0.28725 -1.35371,-0.48075 -2.03613,-0.70275 -2.92974,-6.34275 -0.1872,-6.41723 4.02832,-4.9365 -2.68959,46.9269 4.14196,108.03405 20.5371,172.35345 8.3408,33.78022 13.31544,56.42212 15.60059,80.59575 z"
       inkscape:connector-curvature="0" />
    <path
       id="path934"
       style="stroke-width:1"
       d="m 581.0926,521.26485 c -4.56009,0 -9.12154,-0.015 -13.68164,-0.03 -4.79379,-0.015 -9.59169,-0.03 -14.38476,-0.117 -3.88443,-0.096 -7.77758,-0.20475 -11.64551,-0.60075 -3.98725,-0.447 -7.90655,-1.18643 -11.83594,-1.99215 -3.29894,-0.49425 -6.52842,-1.27935 -9.77051,-2.0508 -2.62407,-0.7065 -5.26058,-1.36898 -7.8955,-2.02148 -2.48578,-0.86257 -5.01577,-1.50712 -7.30957,-2.84182 -1.82811,-0.6165 -3.59429,-1.37303 -5.30274,-2.22653 -1.96503,-0.87157 -3.9921,-1.55812 -6.00586,-2.28517 0.0956,-4.62698 0.2832,-8.81798 0.35153,-13.53518 0.45285,-24.90555 0.71617,-36.0696 1.12793,-58.35937 0.72645,-0.0893 1.45708,-0.12675 2.18261,-0.234 4.67027,-0.4755 9.33136,-0.99953 13.94531,-1.875 4.12035,-0.48825 8.24326,-1.0179 12.31934,-1.80173 4.27234,-0.4245 8.54735,-0.561 12.81739,-1.0254 4.83858,-0.498 9.68353,-0.83077 14.50195,-1.50877 4.10616,-0.59775 8.23561,-1.01265 12.37793,-1.24515 4.46513,-0.2385 8.94771,-0.27 13.41797,-0.3225 4.04107,0.15075 8.26069,-0.54225 12.20215,0.60075 4.32172,0.83812 8.39814,2.5596 12.6123,3.80865 3.18596,1.54035 6.60091,2.57242 9.72656,4.23337 3.66158,1.57013 6.99742,3.7983 10.48828,5.7129 1.30778,1.01085 2.75238,1.77863 4.21875,2.50485 0.49995,19.07393 -0.29347,40.8462 -2.24121,70.44435 -3.37635,0.86678 -6.74031,1.7949 -10.12207,2.6367 -3.67107,0.9732 -7.36826,1.86338 -11.10351,2.54888 -3.17411,0.5985 -6.3203,1.34122 -9.55079,1.58197 -3.81567,-3.7e-4 -7.62474,0.002 -11.44043,0 z"
       inkscape:connector-curvature="0" />
    <path
       style="stroke-width:1"
       d="m 590.40901,1059.6242 c -2.13113,0 -4.25569,0 -6.38672,-0.015 -1.97133,-0.023 -3.9388,-0.053 -5.90332,-0.234 -2.19805,-0.2677 -4.37638,-0.8131 -6.60644,-0.8056 -2.20425,-0.1163 -4.40732,-0.2738 -6.59181,-0.6008 -2.70717,-0.4402 -5.42335,-0.8671 -8.10058,-1.4648 -3.17079,-0.5678 -6.3267,-1.1385 -9.46289,-1.875 -3.6479,-0.7536 -7.30203,-1.483 -10.91308,-2.4023 -4.06695,-1.083 -8.17347,-2.032 -12.15821,-3.3985 -4.00752,-1.2685 -8.03165,-2.5017 -11.98242,-3.9404 -3.78634,-1.3651 -7.5762,-2.7321 -11.29395,-4.2774 -3.84056,-1.5374 -7.68717,-3.0424 -11.54296,-4.541 -3.91838,-1.5404 -7.80787,-3.1332 -11.66016,-4.834 -3.73385,-1.6489 -7.44044,-3.3543 -11.05957,-5.2441 -3.25833,-1.7489 -6.46998,-3.6022 -9.77051,-5.2735 -3.17985,-1.7437 -6.36134,-3.4741 -9.55078,-5.2002 -2.97076,-1.6825 -5.86662,-3.4912 -8.75977,-5.3027 -2.93334,-1.8452 -5.86659,-3.6962 -8.84765,-5.4638 -2.7936,-1.6645 -5.54661,-3.4049 -8.18848,-5.30275 -1.4999,-1.15433 -2.92241,-2.40203 -4.30664,-3.69143 1.2587,-1.90905 1.63844,-3.71467 1.23047,-5.1123 12.49786,-32.80545 32.5584,-136.36042 49.05762,-267.08497 6,-45.99998 13.99218,-88.99515 16.99218,-94.99515 3.31637,-4.1454 6.53584,-47.3844 8.14454,-101.1621 1.84821,0.83872 3.69075,1.69447 5.61034,2.35845 -0.12427,-0.015 -0.49057,-0.10425 -0.38085,-0.045 2.36757,1.3002 5.06178,1.97167 7.60254,2.85645 3.04233,0.89175 6.13783,1.5888 9.19923,2.41695 3.9345,0.9567 7.86092,1.86922 11.86523,2.49022 4.16164,0.89948 8.35338,1.6095 12.583,2.09475 4.42839,0.468 8.88135,0.6075 13.33008,0.71775 4.92822,0.0945 9.85131,0.117 14.78028,0.132 4.57871,0.015 9.1615,0.015 13.74023,0.015 3.81927,0.002 7.63581,0 11.45508,0 4.43241,-0.1185 8.74412,-1.09582 13.08106,-1.90425 4.19565,-0.78315 8.35479,-1.76325 12.48046,-2.85645 1.27829,-0.31425 2.5511,-0.654 3.82325,-0.99607 -0.71363,9.79462 -1.41879,19.41442 -2.31446,30.87885 -6,89.00002 -7,158.9961 0,195.99615 9.03686,56.48032 5.03069,198.55815 -5.61035,297.7588 -0.26138,0.095 -0.5166,0.2047 -0.77636,0.3075 h -1.4502 -2.87109 -3.91114 -4.36523 c -1.53655,0 -3.07771,10e-5 -4.61426,0 -1.86497,-3e-4 -3.73073,-6e-4 -5.5957,0 z"
       id="path932"
       inkscape:connector-curvature="0" />
    <path
       style="stroke-width:1"
       d="m 334.06135,154.2483 c -2.15824,-0.4305 -4.18298,-1.41848 -6.35742,-1.7871 -2.22534,-0.43725 -4.32489,-1.4814 -6.60644,-1.7139 -2.32455,-0.50175 -4.57085,-1.41263 -6.95802,-1.64063 -2.91039,-0.543 -5.81769,-1.20045 -8.80371,-0.98145 -2.75226,0 -5.4948,-1.5e-4 -8.24706,0 -1.49898,1.5e-4 -2.99811,-9e-4 -4.49707,0 -1.53645,0 -3.07783,0.007 -4.61426,0.015 -2.27627,0.007 -4.5502,0.0225 -6.82617,0.06 -2.43796,0.045 -4.87926,0.11175 -7.30957,0.3225 -2.67399,0.23925 -5.33861,0.579 -7.9541,1.20113 -0.36848,0.0915 -3.13359,0.25875 -4.7754,0.1755 -2.66067,0.0375 -5.33781,0.0675 -7.96875,0.513 -2.78969,0.66525 -4.12485,1.30132 -6.67968,2.0361 -2.53496,-24.63068 -7.75526,-44.22788 -15.84961,-55.883778 -25.00001,-39 -15,-66.00585 30,-81.00585 61.78003,-19.959675 70.18372,-7.5312 73.44726,138.691428 z"
       id="path930"
       onClick="newTick()"
       inkscape:connector-curvature="0" />
    <path
       style="fill:#000403;fill-opacity:1;stroke-width:1"
       d="m 210.36995,434.09205 c 2.46537,-24.34875 7.85329,-49.38878 17.24121,-85.53225 15.48232,-62.5248 22.38541,-127.05743 20.21484,-176.73338 1.29789,-0.2895 2.59929,-0.567 3.88184,-0.92287 0.23692,0.19425 6.78715,-2.45078 5.09765,-1.66995 1.51892,-0.12375 3.03263,-0.13875 4.55567,-0.16125 2.86647,0.0675 5.69294,-0.015 8.51074,-0.58575 1.84133,-0.447 3.72336,-0.70125 5.61035,-0.8496 2.01147,-0.1725 4.03217,-0.2265 6.0498,-0.264 2.17452,-0.0375 4.34376,-0.0525 6.51856,-0.06 1.5178,-0.005 3.03786,0.001 4.55567,0 1.49422,-9.8e-4 2.98818,0 4.48242,0 2.75183,-8e-5 5.50986,7e-5 8.26172,0 1.85264,-0.20925 3.42439,0.2865 5.22949,0.63 2.29487,0.27 3.53054,0.81682 5.96191,1.4355 2.28023,0.3285 4.31033,1.11277 6.54785,1.69927 2.34327,0.58425 4.69442,1.40753 7.13379,1.97753 1.4533,0.3645 2.88677,0.8166 4.32129,1.25977 0.015,0.83333 0.0435,1.4001 0.0585,2.24123 1.88553,111.56055 3.50527,191.62485 5.30274,254.20897 -2.51121,-1.1718 -5.08913,-2.1924 -7.67578,-3.1641 -3.40613,-1.52985 -6.90732,-3.00967 -10.63477,-3.50092 -3.67219,-0.54375 -7.3539,-0.53625 -11.05957,-0.46875 -4.40252,0.007 -8.81044,0.015 -13.21289,0.045 -4.82666,0.0375 -9.64816,0.0758 -14.47265,0.234 -4.26595,0.174 -8.53853,0.38475 -12.77345,0.9522 -3.61893,0.45675 -7.21329,0.77025 -10.86913,0.71775 -4.77003,0.231 -9.49653,0.7395 -14.17969,1.68457 -4.37792,0.76508 -8.76262,1.48763 -13.08106,2.5488 -3.77627,0.91995 -7.45431,2.1414 -11.27929,2.87115 -3.15427,0.92175 -6.48947,1.42875 -9.77051,1.40625 z"
       id="path928"
       inkscape:connector-curvature="0" />
    <path
       style="fill:#000000;fill-opacity:1;stroke-width:1"
       d="m 302.93342,522.94942 c -6.07586,-0.0375 -12.14869,-0.0818 -18.22266,-0.249 -6.45828,-0.19425 -12.91624,-0.4875 -19.35058,-1.0986 -6.16156,-0.63225 -12.33378,-1.18545 -18.48633,-1.8897 -6.3212,-1.00462 -12.60583,-2.18782 -18.95507,-3.03217 -5.73485,-0.97358 -11.47545,-1.806 -17.28516,-2.15333 -1.6783,-24.20002 -2.32867,-43.25655 -1.59668,-61.25977 h 1.86035 c 4.9712,0.075 9.93589,-0.81825 14.73633,-2.0508 3.68173,-0.681 7.22349,-1.88783 10.85449,-2.76855 3.91175,-0.96308 7.88458,-1.6068 11.85059,-2.2998 3.89484,-0.8355 7.80442,-1.221 11.77734,-1.40625 4.14515,0.03 8.25548,-0.31875 12.36328,-0.83498 3.69621,-0.49725 7.42402,-0.68625 11.14746,-0.83497 4.6135,-0.14475 9.22733,-0.18975 13.84277,-0.21975 4.36476,-0.03 8.73088,-0.0375 13.09571,-0.045 2.68334,0.0945 5.39034,-0.23775 8.04199,0.249 1.9865,0.2685 3.80735,1.10272 5.625,1.97752 0.46553,0.201 0.91648,0.42375 1.3916,0.60075 1.44771,0.53925 2.7099,1.0848 4.14551,1.6113 1.73867,0.639 2.57701,0.7215 1.4209,0.5715 2.17249,0.77858 3.89185,1.83848 5.93262,2.76863 1.48438,0.68025 0.89361,0.2085 1.49413,0.71775 0.65303,0.2835 1.24752,0.6615 1.875,0.98145 0.74483,23.55315 1.52982,44.6433 2.3877,62.9004 -0.2283,0.09 -0.44092,0.2115 -0.6738,0.29325 -3.89637,1.37415 -7.80521,2.6466 -11.85058,3.53025 -4.53723,0.97215 -9.04796,2.01945 -13.59375,2.94435 -4.55866,0.70575 -9.2201,0.98107 -13.82813,0.99607 z"
       id="path926"
       inkscape:connector-curvature="0" />
    <path
       style="stroke-width:1"
       d="m 220.14045,1036.6702 c -3.15733,-44.83638 -3.60249,-103.2859 -2.53417,-202.10455 0.97044,-115.4835 -0.90137,-247.23548 -5.58106,-300.65918 4.24732,0.3765 8.46173,0.96248 12.6709,1.68458 6.40063,0.87285 12.74588,1.99995 19.11621,3.04687 6.51672,0.79935 13.05298,1.3803 19.58496,2.0508 6.8928,0.66225 13.80851,0.96188 20.72754,1.17188 6.22421,0.17175 12.45057,0.23325 18.67676,0.27825 5.58331,0.0375 11.18557,-0.429 16.71386,-1.2012 4.97319,-0.95475 9.90277,-2.10818 14.85352,-3.16403 3.22734,-0.72075 6.3844,-1.66245 9.52148,-2.66602 3.45266,62.15662 8.09527,94.6272 15.71777,128.45212 9.00002,41.00003 17.00685,93.00488 17.00685,115.00485 0,23.00003 6.99999,66.9981 15,97.99808 7.99999,32.00002 15,73.99222 15,91.99222 0,10.51433 0.46965,17.81325 1.18652,23.24708 -0.9224,0.85785 -1.8242,1.74397 -2.85645,2.4609 -1.63797,1.4562 -3.47222,2.66685 -5.15625,4.05765 -1.43854,1.0875 -2.94681,2.0877 -4.39453,3.164 -1.57975,1.0305 -3.16581,2.0537 -4.79004,3.0176 -1.9035,1.2036 -3.95719,2.1643 -6.0205,3.0615 -2.70206,1.2495 -5.39537,2.4708 -8.042,3.8379 -2.75656,1.2073 -5.49895,2.4363 -8.32031,3.4863 -3.14352,0.9012 -6.22301,1.9734 -9.33106,2.9883 -3.20688,0.8838 -6.4311,1.7193 -9.65332,2.5488 -4.07523,0.9099 -8.11048,1.9381 -12.17285,2.9004 -4.3087,0.822 -8.55517,1.968 -12.84668,2.8711 -3.72131,0.6705 -7.35146,1.6925 -11.07422,2.3585 -3.39078,0.7327 -6.81879,1.3012 -10.23925,1.875 -3.26171,0.5752 -6.50857,1.2339 -9.77051,1.8017 -3.00253,0.3457 -5.9594,0.9305 -8.96484,1.2598 -2.95905,0.2017 -5.90043,0.4065 -8.83302,0.8642 -2.30742,0.3172 -4.64724,0.387 -6.97265,0.4545 -2.4445,0.03 -4.86129,0.3967 -7.29492,0.6007 -2.35621,0.2663 -4.71973,0.351 -7.08985,0.381 -2.54313,-0.023 -5.07075,0.3285 -7.60254,0.5273 -2.154,0.1657 -4.31529,0.2332 -6.4746,0.2782 -2.19297,0.045 -4.38381,0.053 -6.57715,0.06 -2.00202,0.01 -4.00383,0.015 -6.00586,0.015 -1.45494,9e-4 -2.9103,0 -4.36524,0 -0.93925,10e-5 -1.87431,0 -2.8125,0 z"
       id="path924"
       inkscape:connector-curvature="0" />
    <path
       style="stroke-width:1"
       d="m 747.51353,1343.8332 c -0.651,-0.3523 -1.299,-0.7461 -2.10937,-1.2158 -1.38435,-0.5487 -2.7384,-1.1217 -4.11623,-1.6992 -1.7463,-0.483 -3.31327,-1.5198 -5.0391,-2.0801 -1.73572,-0.4357 -3.24495,-1.5013 -4.98045,-1.9775 -1.97737,-0.735 -3.97702,-1.383 -5.90332,-2.2412 -1.98113,-0.6788 -3.9396,-1.4263 -5.9619,-1.9776 -2.41185,-0.827 -4.83773,-1.5832 -7.28025,-2.3145 -2.34383,-0.5332 -4.6056,-1.361 -6.92873,-1.9775 -2.11282,-0.4417 -4.17427,-1.047 -6.29887,-1.4355 -2.397,-0.6487 -4.83563,-1.1945 -7.26563,-1.6993 -2.66827,-0.51 -5.31735,-1.1148 -8.02732,-1.3915 -2.83373,-0.4688 -5.6643,-0.8812 -8.49608,-1.3477 -2.43675,-0.1905 -4.87275,-0.4297 -7.28025,-0.8643 -2.5623,-0.3262 -5.13892,-0.4927 -7.70512,-0.7909 -2.61068,-0.1695 -5.2215,-0.102 -7.8369,-0.117 h -7.67579 -9.27246 -3.208 c 8.72507,-41.4201 22.4808,-77.919 46.47952,-125.1417 16.17075,-33.4966 27.1863,-59.8134 33.54488,-81.0351 1.53345,0.8296 2.88322,1.9508 4.36522,2.8711 1.3164,0.9853 2.77395,1.7387 4.1016,2.71 1.72343,1.2241 3.52358,2.3117 5.31735,3.4277 2.02928,1.1141 4.01535,2.3115 6.0498,3.4131 1.78898,1.1419 3.66225,2.1319 5.52248,3.1494 1.947,1.1283 3.90285,2.231 5.9766,3.1055 2.16465,0.8574 4.3293,1.7109 6.51855,2.5049 2.2161,0.9 4.50382,1.6013 6.7236,2.4902 2.17822,0.7531 4.33035,1.5868 6.50392,2.3584 1.8738,0.7507 3.80873,1.3291 5.65425,2.1533 2.09213,0.7815 4.2465,1.3644 6.38678,1.9922 1.46707,0.4185 2.90535,0.8891 4.3506,1.3623 -3.38063,11.2374 -5.23125,24.5658 -7.01663,43.4912 -4.00005,32 -12.9912,93.0039 -20.99122,134.0039 -1.24958,5.6925 -2.71905,13.3499 -4.10153,20.2735 z"
       id="path922"
       inkscape:connector-curvature="0" />
    <path
       style="stroke-width:1"
       d="m 736.35136,1403.1448 c -2.6856,-0.013 -5.37128,-0.018 -8.05658,-0.059 -4.32772,-0.072 -8.6586,-0.1701 -12.97852,-0.4542 -4.95023,-0.3528 -9.88493,-0.867 -14.79495,-1.5967 -5.22503,-0.6285 -10.37235,-1.6518 -15.49808,-2.8417 -5.0085,-1.1805 -9.99877,-2.4532 -14.86815,-4.1309 -5.15497,-1.813 -10.29982,-3.645 -15.36622,-5.6982 -4.99425,-2.0839 -10.00652,-4.1091 -14.89743,-6.4307 -4.54958,-2.1982 -9.06734,-4.4797 -13.56446,-6.7822 -1.00765,-0.4949 -1.95549,-1.0996 -2.92968,-1.6553 0.74423,-4.9648 1.5114,-9.8044 2.21191,-14.9414 1.24207,-9.1602 2.6903,-17.8514 4.2627,-26.3672 h 5.46386 9.27246 7.67579 c 2.3214,0.09 4.6584,-0.1493 6.97267,0.075 2.34713,0.3082 4.71743,0.4027 7.0605,0.7327 2.6085,0.4673 5.24138,0.7298 7.88085,0.9375 2.49863,0.4725 5.019,0.815 7.52933,1.2305 2.59372,0.27 5.12692,0.8047 7.6758,1.3184 1.99957,0.4868 4.37662,0.7891 6.28417,1.4648 2.39175,0.4763 4.7253,1.1224 7.10445,1.6407 2.22968,0.6682 4.44293,1.3767 6.70905,1.9189 2.06385,0.6526 4.12118,1.2828 6.16695,1.9922 2.04188,0.5422 3.96293,1.2899 5.94728,1.9775 1.84117,0.8036 3.75337,1.4326 5.63962,2.1387 1.9557,0.7022 3.78015,1.6298 5.77155,2.2412 -0.0525,0.01 -0.19125,0.01 -0.14625,0.029 1.3788,0.6862 1.11173,0.4034 2.53418,0.9521 0.11025,0.042 -0.43875,-0.1171 -0.33675,-0.058 0.771,0.4451 1.65915,0.7125 2.49022,1.0107 1.15358,0.4803 2.3655,1.0039 3.57428,1.4942 -0.1725,-0.066 -0.67575,-0.3158 -0.52725,-0.2051 0.6465,0.4831 1.48972,0.7329 2.21197,1.0547 0.222,0.099 -0.85987,-0.4333 -0.6735,-0.2783 0.2265,0.1886 0.477,0.3424 0.71775,0.5127 0.333,0.1811 0.663,0.3755 0.99608,0.5567 0.06,0.068 -0.18825,-0.162 0.0878,0.1172 0.147,0.1066 0.3,0.202 0.4395,0.3223 0.15375,0.1541 0.315,0.3 0.46875,0.4541 0.0525,0.087 0.13125,0.1389 0.1905,0.2197 -2.80755,14.6122 -5.7261,30.4394 -8.7012,47.1094 z"
       id="path920"
       inkscape:connector-curvature="0" />
    <path
       style="stroke-width:1"
       d="m 621.87385,1730.552 -0.0879,-0.1904 c 0.17767,0.5248 -0.20865,-0.2644 -0.54203,-0.9375 -0.018,-0.04 -0.0405,-0.077 -0.0585,-0.1173 -0.0113,-0.024 -0.018,-0.05 -0.0293,-0.073 -0.20872,-0.4515 -0.43582,-0.8961 -0.64455,-1.3476 -0.0979,-0.1371 -0.22582,-0.4076 -0.27832,-0.4102 0.2187,0.3776 0.35475,0.5469 -0.30765,-0.5713 -0.06,-0.1013 0.0781,0.2112 0.11722,0.3223 -0.55417,-1.3183 -1.20987,-2.5825 -1.94824,-3.8086 -1.1259,-2.0995 -2.29956,-4.1765 -3.38379,-6.2988 -1.72219,-2.9536 -3.18434,-6.0652 -4.70215,-9.126 -1.91314,-4.1394 -3.76039,-8.3071 -5.15625,-12.6563 -2.10904,-6.2928 -3.8773,-12.7015 -5.34667,-19.1748 -1.92569,-8.6588 -3.70426,-17.3614 -4.64356,-26.1914 -1.16104,-10.8902 -2.03415,-21.8148 -2.57813,-32.7539 -0.5586,-11.1124 -0.62902,-22.2147 -0.48337,-33.3398 0.0503,-8.6342 0.1164,-17.2816 0.35152,-25.9131 0.25838,-8.539 0.6363,-17.0759 1.34766,-25.5908 0.63375,-8.0775 1.23794,-16.1552 2.22656,-24.1992 0.90574,-6.8119 2.01397,-13.5794 3.51562,-20.2881 1.39847,-6.2075 2.75736,-12.435 4.32129,-18.6035 1.43382,-5.2075 2.74757,-10.4432 4.20411,-15.6446 0.91383,-3.5118 2.03519,-7.0011 2.50488,-10.6054 0.14093,-1.0805 0.13575,-1.9992 0.0585,-2.8272 3.16776,-9.894 7.32039,-30.3188 11.23536,-54.5947 4.41974,2.2601 8.84571,4.4883 13.31543,6.6504 5.07935,2.4157 10.29486,4.544 15.48342,6.709 5.2671,2.1393 10.6209,4.0315 15.98145,5.9179 5.25382,1.8148 10.63492,3.2061 16.04002,4.4824 5.53785,1.2945 11.09798,2.371 16.74315,3.0616 5.097,0.7575 10.22783,1.2863 15.36623,1.6552 4.52925,0.3007 9.07087,0.4079 13.60837,0.4834 2.08065,0.031 4.16048,0.031 6.2403,0.044 -4.86255,27.537 -9.75427,55.9105 -13.7403,78.9404 -30,185 -33.99225,198.0087 -61.99215,219.0088 -7.49782,4.9986 -20.99481,11.4923 -36.73831,17.9883 z"
       id="path918"
       inkscape:connector-curvature="0" />
    <path
       style="stroke-width:1"
       d="m 90.70686,1360.6203 c -1.041585,-4.3169 -2.039865,-8.8205 -3.090817,-13.0664 -6.000015,-23 -15.009773,-80.9941 -20.009768,-128.9941 -5.442937,-45.7207 -8.563755,-68.0023 -17.329102,-86.4258 0.4047,-0.077 0.812512,-0.1343 1.215817,-0.2198 1.380563,-0.3922 2.78196,-0.6045 4.174808,-0.9522 1.205512,-0.321 2.426257,-0.525 3.64746,-0.7617 1.406662,-0.315 2.818485,-0.5542 4.233397,-0.8203 1.83147,-0.4095 3.683258,-0.7704 5.493165,-1.2744 1.701503,-0.339 3.367913,-0.7808 5.05371,-1.1865 1.847888,-0.5288 3.693443,-1.0815 5.537108,-1.626 1.586392,-0.4493 3.103267,-1.1409 4.716802,-1.4942 1.831605,-0.5325 3.611498,-1.2349 5.463863,-1.6992 1.79751,-0.5752 3.590857,-1.2018 5.36133,-1.8603 1.48242,-0.513 2.948235,-1.085 4.37988,-1.7285 0.834827,-0.1747 2.426607,-1.0608 3.032227,-1.1133 1.02464,-0.4432 1.99681,-0.9005 3.04688,-1.2598 1.2157,-0.57 2.06224,-0.9527 3.51562,-1.5527 1.02866,-0.3982 1.82958,-0.7687 2.79785,-1.1572 0.54128,-0.1005 3.91722,-2.2494 1.66992,-0.8203 0.98912,-0.2933 1.49547,-0.696 2.46094,-1.2012 0.2211,-0.1155 -0.4011,0.3105 -0.62985,0.4102 1.26061,-0.3412 2.43354,-0.9287 3.57422,-1.5527 0.95244,-0.5662 1.75596,-1.0077 2.75391,-1.7431 -2.69601,2.0121 3.22581,-1.9588 0.74707,-0.249 0.27788,-0.1755 0.2508,-0.135 0.46875,-0.2633 6.27629,22.4948 17.38248,49.0911 34.61426,83.5547 24.81834,50.523 39.39063,91.6197 46.56738,133.0371 -0.11722,6e-4 -0.23437,-8e-4 -0.35152,0 -2.80422,0.023 -5.6196,0.067 -8.42285,0.1462 -4.14412,0.1268 -8.27821,0.2813 -12.40723,0.6743 -4.44923,0.45 -8.89819,1.0178 -13.31543,1.7138 -4.2976,0.9339 -8.52849,2.1613 -12.80274,3.1933 -4.63203,1.3505 -9.25991,2.6814 -13.74023,4.4971 -4.09935,1.5315 -8.19921,3.1024 -12.07031,5.1563 -3.74354,1.7044 -7.39843,3.5781 -11.13281,5.3027 -3.84924,1.5831 -7.53085,3.5013 -11.19141,5.4785 -2.77071,1.4287 -5.66172,2.6438 -8.29101,4.336 -2.634402,1.3664 -5.202237,2.8358 -7.778322,4.3066 -0.655275,0.4027 -1.307423,0.8122 -1.962893,1.2158 z"
       id="path914"
       inkscape:connector-curvature="0" />
    <path
       style="stroke-width:0.13333334"
       d="m 26.074219,91.787109 c -0.38067,0 -0.761912,0.0013 -1.142578,0.002 -0.389768,0.002 -0.778294,0.0063 -1.167969,0.01563 -0.329668,0.0095 -0.660424,0.02034 -0.988281,0.05859 -0.343422,0.03723 -0.686794,0.08974 -1.033203,0.08594 -0.274944,0.0112 -0.549647,0.02765 -0.822266,0.06641 -0.339155,0.05045 -0.675154,0.115185 -1.017578,0.140625 -0.04968,0.0065 -0.09886,0.01626 -0.148438,0.02344 -0.253161,1.105053 -0.515366,2.174198 -0.773437,3.265624 0.22871,0.151694 0.461336,0.298033 0.695312,0.441407 0.309463,0.174026 0.613722,0.354552 0.931641,0.513672 0.352616,0.22412 0.736602,0.388151 1.107422,0.578125 0.44969,0.23756 0.896679,0.484121 1.36914,0.673828 0.519723,0.233133 1.022748,0.494722 1.541016,0.730468 0.483413,0.25848 0.994838,0.457398 1.507812,0.648438 0.561451,0.22836 1.143743,0.393967 1.72461,0.5625 0.533924,0.12252 1.057042,0.286204 1.59375,0.396484 0.534,0.0782 1.070379,0.14913 1.607422,0.20313 0.514282,0.0484 1.030761,0.0684 1.546875,0.084 0.362106,0.0105 0.723705,0.0146 1.085937,0.0176 h 0.273438 c 0.02649,-0.18964 0.06167,-0.378282 0.08594,-0.568362 0.21514,-1.635066 0.476423,-3.271748 0.748047,-4.855468 -0.07386,-0.05096 -0.18158,-0.119092 -0.189453,-0.136719 -0.167746,-0.124909 -0.350557,-0.234099 -0.52344,-0.351659 C 33.90477,94.276253 33.731086,94.160113 33.544922,94.0625 33.364391,93.9657 33.218287,93.86625 33.03125,93.777344 32.77663,93.66177 32.533808,93.527204 32.285156,93.400391 31.988264,93.264857 31.693722,93.125386 31.390625,93.003906 31.059642,92.8778 30.727775,92.753325 30.392578,92.638672 c -0.365957,-0.112453 -0.731161,-0.228271 -1.099609,-0.332031 -0.35612,-0.09829 -0.718652,-0.169493 -1.078125,-0.253907 -0.376224,-0.06667 -0.750678,-0.141865 -1.128906,-0.197265 -0.334121,-0.05759 -0.673013,-0.07676 -1.011719,-0.06836 z"
       transform="matrix(7.5,0,0,-7.5,-48.779288,2088.5161)"
       id="path912"
       inkscape:connector-curvature="0" />
    <path
       style="stroke-width:0.13333334"
       d="M 36.669922,47.066406 C 27.306711,50.72226 24.71875,54.967784 24.71875,64.527344 c 0,3.527213 -2.064694,14.765957 -4.597656,26.023437 0.189161,-0.02733 0.378947,-0.04976 0.568359,-0.07813 0.327404,-0.04749 0.657981,-0.07001 0.988281,-0.08398 0.311968,0.0055 0.620515,-0.04447 0.929688,-0.07813 0.368791,-0.04289 0.738544,-0.05557 1.109375,-0.06641 0.402044,-0.0099 0.804887,-0.01147 1.207031,-0.01367 0.382929,-0.0019 0.765506,-0.0036 1.148438,-0.0039 0.422733,-0.01293 0.844316,0.02349 1.261718,0.08789 0.385752,0.05676 0.768443,0.133985 1.152344,0.201172 0.407283,0.09144 0.815798,0.175663 1.21875,0.285156 0.38396,0.10796 0.763194,0.23063 1.144531,0.347657 0.368319,0.123799 0.732654,0.26021 1.095703,0.398437 0.334528,0.13228 0.659101,0.2847 0.986329,0.433594 0.250958,0.120386 0.486454,0.262053 0.740234,0.375 0.211224,0.09343 0.401685,0.222945 0.605469,0.330078 0.204572,0.104853 0.394374,0.235863 0.59375,0.349609 0.0775,0.04864 0.152062,0.101944 0.228515,0.152344 0.483751,-2.599773 0.978295,-4.814228 1.351563,-5.859375 0.03201,-0.08181 0.05745,-0.135756 0.08789,-0.210937 -0.01492,0.01315 -0.02884,0.02344 -0.04883,0.05469 -0.0046,0.0072 -0.01007,0.01378 -0.01367,0.02148 -0.05609,0.121576 0.01483,-0.03783 0.0332,-0.07031 0.0052,-0.0059 0.009,-0.0077 0.01563,-0.01758 0.0016,-0.0026 7.53e-4,-0.0042 0.002,-0.0059 0.0092,-0.01273 0.02082,-0.02336 0.03125,-0.03516 6e-4,-0.0024 0.0015,-0.0036 0.002,-0.0059 0.01851,-0.05583 0.04626,-0.10738 0.06445,-0.16211 0.05475,-0.15009 -0.009,0.06083 0.02148,-0.0625 0.0026,-0.01053 0.0067,-0.02084 0.0098,-0.03125 5e-4,-0.0015 0.0016,-0.0015 0.002,-0.0039 4e-4,0.03906 -0.0024,-0.06517 -0.0039,-0.07227 -0.0022,-0.03605 -0.0041,-0.07367 -0.0098,-0.109374 -0.01247,-0.04783 0.03807,0.09415 0.02734,0.03906 -0.02852,-0.146438 -0.06346,-0.127758 -0.05078,-0.205078 0.0085,-0.05391 0.02676,-0.103671 0.05469,-0.150391 0.0037,-0.0081 0.0061,-0.01534 0.0098,-0.02344 0.0041,-0.01053 0.0045,-0.01323 0.0078,-0.01953 0.005,-0.02052 0.0082,-0.0407 0.01563,-0.06055 -0.0067,0.104517 0.0034,-0.08966 0.0098,-0.09766 0.0084,-0.04695 0.01678,-0.09455 0.0293,-0.140625 0.0062,-0.02276 0.0196,-0.02873 0.02734,-0.04883 0.02089,-0.343688 0.08393,-0.683136 0.166015,-1.017578 0.19674,-0.714533 0.393603,-1.428177 0.560547,-2.15039 0.1963,-0.882321 0.398918,-1.762565 0.605469,-2.642579 0.230657,-1.07672 0.447223,-2.157454 0.636719,-3.242187 0.201256,-1.405707 0.44652,-2.803291 0.61914,-4.212891 0.197479,-1.606386 0.35247,-3.219691 0.46875,-4.833984 0.110715,-1.667853 0.148444,-3.338886 0.177735,-5.009766 0.0036,-1.504466 -0.114374,-3.005513 -0.294922,-4.498047 -0.170852,-1.17876 -0.333302,-2.35965 -0.548828,-3.53125 -0.15805,-0.870586 -0.305408,-1.742755 -0.511719,-2.603515 -0.170817,-0.65568 -0.347979,-1.315432 -0.589844,-1.949219 -0.202984,-0.583613 -0.4475,-1.150283 -0.6875,-1.71875 -0.200508,-0.4054 -0.36879,-0.82659 -0.587891,-1.222656 -0.03524,-0.07169 -0.08149,-0.138418 -0.11914,-0.210938 z"
       transform="matrix(7.5,0,0,-7.5,-48.779288,2088.5161)"
       id="path910"
       inkscape:connector-curvature="0" />
    <path
       style="stroke-width:1"
       d="m 410.14534,1430.6399 c -7.06752,0 -14.12881,0 -21.19629,-0.029 -6.37193,-0.028 -12.74559,-0.063 -19.11621,-0.205 -6.24917,-0.1538 -12.48958,-0.3886 -18.72071,-0.9082 -6.99338,-0.6121 -13.99345,-1.2743 -20.97656,-1.9922 -7.74081,-0.7838 -15.45305,-1.7246 -23.14453,-2.9004 -7.64227,-0.9427 -15.24082,-2.2692 -22.88086,-3.2373 -7.2426,-0.919 -14.47032,-1.9173 -21.75293,-2.4756 -5.26436,-0.355 -10.5412,-0.6291 -15.82031,-0.586 1.34787,-4.2374 2.44412,-7.4255 4.07226,-12.7441 18,-63 14,-133.001 -15,-266.0009 -7.24395,-31.9587 -11.83555,-58.9624 -14.69238,-93.1788 0.67808,10e-5 1.35582,2e-4 2.03613,0 1.45688,-3e-4 2.92301,-8e-4 4.37989,0 2.01304,0 4.02211,-0.01 6.03515,-0.015 2.25119,-0.015 4.50212,-0.015 6.75293,-0.06 2.34226,-0.053 4.68018,-0.1267 7.01661,-0.3075 2.3148,-0.183 4.63378,-0.4912 6.958,-0.4837 2.60574,-0.03 5.20177,-0.1478 7.79297,-0.4245 2.25242,-0.1913 4.49183,-0.5265 6.75293,-0.5715 2.74405,-0.078 5.49733,-0.1785 8.21777,-0.5715 2.77943,-0.4515 5.57569,-0.5738 8.37891,-0.8057 3.21206,-0.3585 6.38687,-0.9644 9.59473,-1.3476 3.23677,-0.576 6.46035,-1.2059 9.69726,-1.7871 3.45403,-0.5858 6.9019,-1.1487 10.32715,-1.8897 3.81637,-0.6915 7.55412,-1.7142 11.36719,-2.417 4.37005,-0.9243 8.69403,-2.0854 13.08105,-2.9296 4.12161,-0.9801 8.22911,-2.016 12.36329,-2.9444 3.42426,-0.8823 6.83574,-1.768 10.23925,-2.7246 3.22926,-1.0612 6.45262,-2.1399 9.71192,-3.1055 3.19011,-1.1891 6.28414,-2.5766 9.38964,-3.9697 2.45493,-1.2791 4.97502,-2.3973 7.48536,-3.5596 2.42622,-1.0682 4.84175,-2.2077 7.08984,-3.6181 1.92451,-1.1483 3.80883,-2.3552 5.66895,-3.6035 1.61963,-1.2522 3.36732,-2.3289 4.95117,-3.6329 0.4071,-0.5655 -0.003,-0.045 1.24512,-0.9229 0.97574,-0.6877 1.8806,-1.4762 2.79785,-2.2411 1.73506,1.6495 3.54389,3.2189 5.43457,4.6875 2.94498,2.1459 6.02772,4.0951 9.15527,5.9619 2.91509,1.7281 5.7891,3.5277 8.65723,5.332 3.01761,1.8925 6.02713,3.7794 9.12597,5.5371 3.22779,1.7507 6.46287,3.5078 9.68262,5.2734 3.32157,1.6869 6.55161,3.5349 9.8291,5.3028 3.84037,2.0105 7.78395,3.8299 11.74805,5.581 3.97547,1.7528 7.98349,3.3911 12.02636,4.9805 3.83688,1.4908 7.66337,2.9956 11.48438,4.5264 3.82269,1.5869 7.72372,2.991 11.61621,4.3945 4.07009,1.4842 8.20516,2.7497 12.33399,4.0577 4.12728,1.4145 8.38558,2.4085 12.59765,3.5302 3.78753,0.9688 7.61324,1.7288 11.44043,2.5196 3.22011,0.7432 6.47358,1.347 9.72657,1.9335 2.7276,0.6068 5.48964,1.028 8.24706,1.4795 2.53179,0.387 5.09073,0.5962 7.64649,0.7327 1.96654,0.023 3.89136,0.4463 5.83008,0.7178 2.34483,0.255 4.70479,0.2925 7.06054,0.3225 2.17214,0.023 4.34634,0.03 6.51856,0.03 h 5.5957 c 1.53695,2e-4 3.07731,0 4.61426,0 h 4.36523 3.91114 2.87109 1.05469 c -3.25098,28.1361 -7.01442,52.4473 -11.20605,69.2138 -23.00001,88.0001 -30,216.9961 -15,270.9961 1.27392,4.5498 2.61391,8.683 3.98437,12.5684 -1.58722,0.09 -3.17521,0.1666 -4.76074,0.2929 -4.26405,0.3309 -8.5268,0.7143 -12.80274,0.8643 -5.18304,0.3517 -10.34512,0.8446 -15.49804,1.5088 -4.96823,0.4988 -9.95156,0.8751 -14.91212,1.4502 -4.76065,0.3857 -9.51543,0.8066 -14.28222,1.1132 -4.41886,0.3153 -8.86072,0.4487 -13.28613,0.6446 -4.64035,3e-4 -9.27567,5e-4 -13.91602,0 -4.19536,0 -8.38766,0 -12.58301,0.015 -4.09269,0.011 -8.18292,0.026 -12.27539,0.073 -4.41269,0.061 -8.83287,0.1467 -13.24219,0.3369 -5.12757,0.2343 -10.24761,0.5857 -15.38085,0.6592 -5.91709,0.132 -11.83178,0.3143 -17.73927,0.6885 -6.58314,0.4058 -13.17702,0.8132 -19.77538,0.8642 z"
       id="path908"
       inkscape:connector-curvature="0" />
    <path
       style="stroke-width:1"
       d="m 494.69612,1781.8948 c -0.40605,-0.2134 -0.79863,-0.4159 -0.89355,-0.4542 -0.26948,-0.2198 -0.46133,-0.4677 -1.40625,-0.8935 0.27645,0.1846 1.05851,0.8057 0.77636,0.6298 -2.65125,-1.6515 -0.70493,-0.9235 -3.28125,-1.6552 -0.16118,-0.013 0.0814,0.096 0.5127,0.3662 0.0435,0.038 0.16597,0.1333 0.11722,0.1025 -0.43027,-0.2733 -0.81399,-0.6163 -1.27441,-0.835 -0.321,-0.1524 -0.6669,-0.2272 -1.01075,-0.3222 0.21135,0.1422 0.84465,0.5619 0.62985,0.4248 -0.2604,-0.1664 -0.51907,-0.3099 -0.77637,-0.4688 l -0.015,-0.015 c -0.75925,-0.4675 -1.53594,-0.8963 -2.46093,-1.0547 0.49785,0.2463 -2.91556,-1.1883 -2.76856,-1.04 -1.18379,-0.2018 -2.1878,-0.9616 -3.41309,-1.0254 -1.22064,-0.2435 -2.34024,-0.8897 -3.58887,-1.04 -1.76895,-0.7353 -3.62768,-1.1394 -5.41992,-1.8164 -1.88493,-0.4905 -3.69674,-1.2237 -5.625,-1.5674 -2.03598,-0.2939 -3.99037,-0.8974 -6.00585,-1.2891 -2.5738,-0.5902 -5.11787,-1.3368 -7.73438,-1.7285 -2.3682,-0.4353 -4.74081,-0.8298 -7.11914,-1.2158 -2.13325,-0.1424 -4.25913,-0.3779 -6.38672,-0.586 -2.70171,-0.16 -5.4097,-0.05 -8.11524,-0.074 -3.20794,9e-4 -6.41607,-0.01 -9.62402,0 -3.35151,0.011 -6.6974,0.018 -10.04883,0.044 -3.45378,0.031 -6.90481,0.071 -10.35644,0.205 -3.14152,0.1373 -6.28925,0.3346 -9.41894,0.6446 -3.1952,0.2338 -6.41537,0.1756 -9.59473,0.6298 -2.92852,0.4535 -5.89362,0.534 -8.81836,1.0108 -2.65045,0.3288 -5.31786,0.6496 -7.92481,1.2304 -2.30886,0.4295 -4.60316,0.9359 -6.94335,1.1572 -2.54913,0.3741 -5.09473,0.831 -7.63184,1.2745 -2.46601,0.4374 -4.90703,0.9539 -7.33887,1.5527 -2.10546,0.5084 -4.21261,1.0338 -6.31348,1.5527 -0.2268,0.044 -0.46072,0.02 -0.6885,0.058 -0.045,-0.038 -0.0863,-0.094 -0.13185,-0.1318 -6.99999,-5 -35.99902,-17.0049 -63.99902,-25.0049 -12.88369,-3.8531 -24.54396,-7.6592 -35.20019,-11.5283 0.0743,-0.1541 0.19125,-0.2846 0.2637,-0.4394 1.77582,-3.275 3.22312,-6.7068 4.83398,-10.0635 1.83719,-4.3823 3.74183,-8.7325 5.30273,-13.2276 1.9167,-5.1498 3.42561,-10.4678 4.7754,-15.791 1.5803,-6.6248 2.73299,-13.3236 3.94043,-20.0244 1.64485,-8.9838 2.90511,-18.0313 4.2041,-27.0703 1.40239,-11.6374 2.32565,-23.353 2.28515,-35.083 -0.22305,-12.7079 -0.50302,-25.4158 -1.34765,-38.1006 -0.88561,-12.2693 -2.05814,-24.5143 -3.55957,-36.7236 -1.32208,-10.7346 -3.17239,-21.4053 -4.7168,-32.1094 -1.45498,-8.3187 -3.11803,-16.5875 -4.89258,-24.8438 -1.54678,-6.5899 -3.05711,-13.1826 -4.52636,-19.79 -1.26398,-5.4621 -2.7509,-10.8726 -4.24805,-16.2744 -0.40155,-1.6189 -0.74243,-3.2546 -0.9375,-4.9072 1.8183,-2.9969 4.03389,-8.851 6.65039,-16.5821 h 1.74352 c 5.51551,-0.1157 11.02388,0.2148 16.52344,0.586 7.09174,0.551 14.1429,1.5361 21.19629,2.4316 7.64796,0.9806 15.24487,2.2697 22.89551,3.2227 7.7628,1.1882 15.55161,2.1375 23.36426,2.9297 7.027,0.7224 14.07112,1.3901 21.1084,2.0068 6.43341,0.5385 12.88373,0.7782 19.33593,0.9375 6.43626,0.1436 12.86905,0.1766 19.30664,0.2051 7.07944,0.026 14.16076,0.039 21.24024,0.044 6.8001,-0.049 13.59155,-0.4751 20.37598,-0.8935 5.78041,-0.3662 11.56856,-0.5449 17.35839,-0.6738 5.20897,-0.073 10.39743,-0.4362 15.60059,-0.6738 4.30637,-0.1851 8.62494,-0.2631 12.93457,-0.3223 4.056,-0.047 8.10197,-0.064 12.1582,-0.073 4.18824,-0.01 8.38011,-0.013 12.56836,-0.015 h 13.91602 c 4.65357,-0.1851 9.31356,-0.3504 13.95996,-0.6738 4.80059,-0.3097 9.59025,-0.7253 14.38476,-1.1133 5.02293,-0.5784 10.07225,-0.96 15.10254,-1.4648 5.04914,-0.6489 10.11189,-1.1361 15.19043,-1.4795 4.30724,-0.152 8.59524,-0.5463 12.89062,-0.8789 2.43729,-0.1946 4.88199,-0.3405 7.32423,-0.4542 0.147,-0.01 0.29287,-0.01 0.43942,-0.015 2.11393,4.8108 4.22087,8.8185 6.19628,11.4551 -0.81633,2.6065 -1.48384,5.4153 -2.18261,8.1006 -1.44486,5.1571 -2.73808,10.3496 -4.16016,15.5127 -1.61031,6.3142 -3.00592,12.687 -4.43848,19.043 -1.56282,6.9915 -2.73172,14.0537 -3.67675,21.1523 -1.01464,8.2169 -1.62303,16.4749 -2.27051,24.7266 -0.72367,8.67 -1.11318,17.3505 -1.37695,26.0449 -0.2379,8.7108 -0.30135,17.4341 -0.35153,26.1475 -0.15037,11.3061 -0.066,22.6033 0.49808,33.8965 0.5502,11.1204 1.43146,22.2104 2.60743,33.2812 0.97434,9.1936 2.81766,18.2597 4.81933,27.2754 1.53961,6.8041 3.41384,13.5265 5.625,20.1416 1.50974,4.6865 3.48929,9.1895 5.55176,13.6523 1.63388,3.336 3.25834,6.6959 5.1123,9.917 1.00566,2.0273 2.16338,3.9851 3.20801,5.9912 0.5016,0.7822 0.88818,1.6173 1.333,2.4317 0.24563,0.4492 0.31148,0.5426 0.0735,0.1611 0.53498,1.1118 0.77981,1.4436 1.09863,1.9482 -0.0728,-0.05 0.51465,1.2039 0.55665,1.2744 0.45878,0.7703 0.0495,0.1318 0.14648,0.2784 -13.42435,5.2612 -27.63848,10.407 -41.10351,14.4873 -33,9 -66.01172,22.0117 -72.01172,27.0117 -1.87067,1.575 -3.45943,3.7987 -4.90723,6.3281 z"
       id="path906"
       inkscape:connector-curvature="0" />
    <path
       style="stroke-width:1"
       d="m 483.7097,1787.2415 c 0.072,0.019 -0.1485,-0.01 -0.21975,-0.029 -0.0555,-0.016 -0.0928,-0.015 -0.1611,-0.058 0.12952,0.027 0.25275,0.055 0.38085,0.088 z"
       id="path904"
       inkscape:connector-curvature="0" />
    <path
       style="stroke-width:0.13333334"
       d="m 71.582031,39.916016 c -0.01304,0.0049 -0.02503,0.01388 -0.03711,0.02148 0.0064,-0.0013 0.01313,-0.0013 0.01953,-0.002 v -0.002 h 0.0059 0.002 c 0.0067,-0.0056 0.01283,-0.01199 0.01953,-0.01758 -0.0023,0.0013 -0.0055,-0.0013 -0.0078,0 z"
       transform="matrix(7.5,0,0,-7.5,-48.779288,2088.5161)"
       id="path902"
       inkscape:connector-curvature="0" />
    <path
       style="stroke-width:0.13333334"
       d="m 71.662109,39.912109 c -0.02378,-0.0037 -0.04613,-0.002 -0.06641,0.0039 -0.0078,0.006 -0.01544,0.01199 -0.02344,0.01758 0.03017,-0.0055 0.05944,-0.01452 0.08984,-0.01953 3.81e-4,-4.61e-4 -3.84e-4,-0.0015 0,-0.002 z"
       transform="matrix(7.5,0,0,-7.5,-48.779288,2088.5161)"
       id="path900"
       inkscape:connector-curvature="0" />
    <path
       style="stroke-width:0.13333334"
       d="m 71.957031,39.707031 c -0.0304,0.01213 -0.0611,0.02356 -0.0918,0.03516 -0.02181,0.03567 -0.0068,0.0051 -0.02148,0.02734 0.0085,-0.0046 0.01326,-0.0074 0.0293,-0.01367 0.0037,-0.0014 0.0071,-0.0023 0.01172,-0.0039 0.02441,-0.01448 0.04891,-0.02864 0.07617,-0.03711 -8.98e-4,-0.0029 -0.003,-0.0049 -0.0039,-0.0078 z"
       transform="matrix(7.5,0,0,-7.5,-48.779288,2088.5161)"
       id="path898"
       inkscape:connector-curvature="0" />
    <path
       style="stroke-width:0.13333334"
       d="m 71.949219,39.675781 c -0.03786,0.02415 0.0079,-0.0013 -0.07031,0.04687 -0.007,0.01187 5.81e-4,-0.0013 -0.0059,0.0098 0.01249,-0.0055 0.02466,-0.01214 0.03711,-0.01758 0.01565,-0.0043 0.02529,-0.0071 0.04687,-0.01367 -0.0025,-0.0081 -0.0053,-0.01715 -0.0078,-0.02539 z"
       transform="matrix(7.5,0,0,-7.5,-48.779288,2088.5161)"
       id="path896"
       inkscape:connector-curvature="0" />
    <path
       style="stroke-width:0.13333334"
       d="m 73.402344,27.1875 c -0.04735,0.03809 -0.09095,0.08086 -0.134766,0.123047 -0.02987,0.02877 -0.06042,0.05693 -0.0918,0.08398 -0.0045,0.0039 -0.0077,0.0023 -0.01563,0.0078 -0.009,0.0093 -0.0039,0.005 -0.0098,0.0098 -0.413022,0.341614 0.02896,-0.0345 -0.388672,0.277344 0.101578,-0.08213 -0.217065,0.153006 -0.271485,0.191406 -0.200729,0.128614 -0.209058,0.135852 -0.324218,0.205079 l -0.002,0.002 c 0.0033,-0.0013 -0.03885,0.03163 -0.03125,0.02148 0.0017,-0.0023 0.0037,-0.0033 0.0059,-0.0059 0.03044,-0.03629 0.10796,-0.109978 0.07813,-0.08594 -0.04564,0.03679 -0.08848,0.07855 -0.130859,0.119141 -0.0298,0.02852 -0.06054,0.05713 -0.0918,0.08398 -0.0046,0.0039 -0.0075,0.0022 -0.01563,0.0078 -0.04064,0.03593 -0.08321,0.07087 -0.125,0.105468 -0.04452,0.04301 -0.100298,0.08339 -0.148438,0.121094 -0.01433,0.0095 -0.295756,0.238358 -0.203125,0.148438 -0.157331,0.144053 -0.220841,0.195982 -0.416015,0.353515 -0.07155,0.04985 -0.215067,0.167067 -0.335938,0.253907 0.0095,-0.0096 0.03786,-0.03779 0.02734,-0.0293 -0.119338,0.09592 -0.236876,0.18961 -0.365235,0.273437 -0.160853,0.108947 -0.33112,0.199615 -0.5,0.294922 -0.217592,0.118133 -0.445716,0.21762 -0.675781,0.308594 -0.252999,0.103186 -0.506597,0.205389 -0.767578,0.287109 -0.220557,0.06763 -0.429734,0.165946 -0.642578,0.253906 -0.215507,0.08736 -0.429512,0.181126 -0.648438,0.259766 -0.192412,0.08033 -0.382794,0.164382 -0.580078,0.232422 -0.241825,0.09843 -0.489512,0.179201 -0.74414,0.238281 -0.287958,0.0816 -0.578626,0.148098 -0.871094,0.210938 -0.258435,0.06572 -0.514685,0.145799 -0.777344,0.193359 -0.272648,0.07156 -0.551352,0.110401 -0.824219,0.181641 -0.363756,0.07544 -0.728251,0.140538 -1.09375,0.207031 -0.361216,0.05652 -0.72296,0.118141 -1.083984,0.175781 -0.356087,0.05344 -0.712326,0.0684 -1.072266,0.05664 -0.359945,-0.0013 -0.720166,-0.0025 -1.080078,-0.0078 -0.370149,-0.0064 -0.740463,-0.01361 -1.109375,-0.04687 -0.355796,-0.03535 -0.708983,-0.09033 -1.054687,-0.183593 -0.380202,-0.09916 -0.76421,-0.18732 -1.136719,-0.314454 -0.413624,-0.1406 -0.821843,-0.300813 -1.212891,-0.496093 -0.344844,-0.17772 -0.670753,-0.38291 -0.996093,-0.59375 -0.287024,-0.201067 -0.575405,-0.400504 -0.869141,-0.591797 -0.299881,-0.191467 -0.599012,-0.385136 -0.878906,-0.605469 -0.108719,-0.0904 -0.22291,-0.173686 -0.337891,-0.255859 1.439856,3.57916 1.668183,8.728354 0.484375,11.300781 0.143764,0.03571 0.287667,0.07084 0.431641,0.105469 0.298392,0.07368 0.599588,0.136253 0.902344,0.189453 0.324131,0.05547 0.648636,0.117722 0.974609,0.162109 0.329927,0.03252 0.654763,0.103583 0.980469,0.164063 0.32167,0.07356 0.651069,0.110124 0.978515,0.15039 0.401875,0.06141 0.806623,0.08116 1.208985,0.140625 0.390512,0.04797 0.785723,0.04568 1.177734,0.07227 0.405903,0.03995 0.811322,0.0683 1.21875,0.08594 0.445328,0.01709 0.892293,0.02139 1.337891,0.02539 0.443684,0.0035 0.886383,0.0032 1.330078,0.0039 0.42715,0 0.854098,0.002 1.28125,0.002 0.331432,-0.01027 0.665344,0.01839 0.996093,-0.0078 0.283225,-0.02941 0.567443,-0.057 0.851563,-0.07617 0.264479,-0.05329 0.529742,-0.09401 0.794922,-0.144531 0.329592,-0.04952 0.650765,-0.14163 0.974609,-0.21875 0.303204,-0.06252 0.599313,-0.145113 0.90625,-0.191406 0.204548,-0.04715 0.397539,-0.121162 0.59961,-0.177735 0.106561,-0.06652 0.481067,-0.112641 0.529296,-0.173828 0.233429,-0.06969 0.46357,-0.152364 0.699219,-0.214844 0.174368,-0.02968 0.296228,-0.09922 0.486328,-0.144531 0.06841,-0.03796 0.189037,-0.08585 0.320313,-0.125 0.0046,-0.0013 0.0091,-0.0013 0.01367,-0.002 h 0.002 v -0.002 c 0.0025,-0.0015 0.0053,-0.0026 0.0078,-0.0039 0.03936,-0.02236 0.07976,-0.04409 0.119141,-0.06641 0.01464,-0.0064 0.02795,-0.01413 0.04297,-0.01953 0.03486,-0.01253 0.02626,-0.0043 0.05664,-0.01367 0.0063,-0.0036 0.0076,-0.007 0.01172,-0.0098 0.09848,-0.05924 0.205799,-0.09449 0.314453,-0.121093 0.0013,-0.0013 0.0027,-0.0013 0.0039,-0.002 0.03492,-0.02336 0.0764,-0.03568 0.115234,-0.05273 0.0088,-0.0039 0.01649,-0.01 0.02539,-0.01367 0.03419,-0.02823 0.06934,-0.05576 0.103516,-0.08398 0.01,-0.0059 0.01878,-0.01252 0.0293,-0.01758 0.0218,-0.01013 0.04435,-0.0197 0.06641,-0.0293 0.0237,-0.02112 0.04662,-0.04386 0.07227,-0.0625 0.0069,-0.0049 0.02962,-0.01529 0.04297,-0.02344 -1.0317,-3.379946 -0.476304,-9.34126 1.447265,-12.4375 -0.01558,0.0104 -0.03002,0.02009 -0.04687,0.03125 0.01151,-0.0069 -0.03935,0.03414 -0.03125,0.02344 0.002,-0.0027 0.0032,-0.0046 0.0059,-0.0078 0.0011,-0.0015 0.0027,4.6e-5 0.0039,-0.002 0.03419,-0.03903 0.105924,-0.107931 0.07617,-0.08398 z"
       transform="matrix(7.5,0,0,-7.5,-48.779288,2088.5161)"
       id="path894"
       inkscape:connector-curvature="0" />
    <path
       style="stroke-width:1"
       d="m 442.49463,2093.8501 c -3.39454,0.1172 -6.99414,0.096 -10.86915,-0.029 -21,0 -44.99805,-3.0059 -52.99804,-6.0059 -8,-3 -24.00196,-14.997 -37.00196,-26.997 -27.3641,-25.5399 -34.66735,-119.9678 -16.02539,-164.4727 0.4386,-0.4543 0.8502,-0.9351 1.31836,-1.3623 1.05286,-1.0917 2.20577,-2.0963 3.28125,-3.1641 0.74205,-0.8601 1.64061,-1.5509 2.49024,-2.2998 0.86028,-0.6794 1.59112,-1.5045 2.47558,-2.1533 1.00179,-0.7667 1.7564,-1.7661 2.72461,-2.5488 0.99836,-1.0424 1.93708,-2.1279 2.94434,-3.1787 0.82194,-0.8407 1.68138,-1.6384 2.59277,-2.3877 1.40001,-1.1462 2.91483,-2.1467 4.33594,-3.2666 1.8288,-1.4295 3.78803,-2.6782 5.74218,-3.9258 2.31954,-1.5087 4.58907,-3.0719 6.85548,-4.6582 2.07916,-1.3274 4.14514,-2.6549 6.34277,-3.7793 2.50646,-1.2325 5.11527,-2.2637 7.76367,-3.1494 2.57448,-0.8733 5.22312,-1.4917 7.85156,-2.168 2.10374,-0.5686 4.24962,-0.9071 6.41602,-1.1133 2.5092,-0.2194 5.02684,-0.2649 7.54394,-0.3076 2.65427,-0.039 5.31425,-0.049 7.96875,-0.058 2.18277,-0.042 4.36111,-0.056 6.51856,0.3075 2.70813,0.4317 5.40595,0.8934 8.11523,1.3184 2.58402,0.4749 5.16185,0.946 7.73438,1.4795 1.85513,0.5143 3.78843,0.6969 5.63964,1.2158 2.01204,0.3732 3.96665,0.9749 5.94727,1.4795 2.10749,0.4542 4.20964,0.9339 6.28418,1.5234 1.56583,0.3597 3.08965,0.8324 4.57032,1.4356 1.44924,0.5023 2.8496,1.121 4.26269,1.7139 1.67513,0.6054 3.30138,1.3228 4.95117,1.9921 1.81863,0.7642 3.64634,1.5381 5.52246,2.1534 1.71983,0.5337 3.37384,1.2096 5.03906,1.8896 1.40142,0.5347 2.78425,1.1425 4.10156,1.8604 0.98756,0.564 1.99194,1.0619 2.92969,1.6992 1.05933,0.6793 1.77487,1.2981 2.79785,2.0215 -0.0577,-0.029 -0.22755,-0.1262 -0.1758,-0.088 1.46033,1.0898 0.68557,0.5715 2.32911,1.7285 0.0203,0.1965 3.37356,2.5479 1.55273,1.3037 1.37254,1.1155 1.65138,1.4459 3.10546,2.4756 0.45735,0.6801 2.52546,1.4864 0.64455,0.498 -0.0824,-0.043 0.12292,0.156 0.19042,0.2198 0.24975,0.2364 0.50715,0.4573 0.76173,0.6885 0.26782,0.1723 0.53782,0.355 0.80566,0.5273 0.7131,0.6054 1.81277,1.2104 2.21192,1.4209 -1.57982,-0.8938 1.22466,0.9342 1.49413,1.1133 1.3704,0.8076 1.00271,0.933 3.2666,2.124 -0.2121,-0.1076 -0.72802,-0.5388 -0.62985,-0.3222 0.12338,0.2723 0.46463,0.3681 0.71775,0.5274 3.11181,1.9577 -0.5253,-0.5643 0.35153,0.2343 0.23685,0.2157 0.47707,0.4185 0.71775,0.6299 0.26025,0.1645 0.51622,0.3335 0.77637,0.4981 0.40897,0.3323 0.62617,0.5453 1.12794,0.8202 0,0 0.015,0.015 0.015,0.015 -0.2583,0.01 0.47647,0.391 0.73245,0.5566 2.69892,1.7468 -1.00317,-0.7895 1.3916,0.9668 0.15143,0.081 0.30285,0.1532 0.45413,0.2344 0,0 0.015,0.015 0.015,0.015 -0.0473,-0.01 0.12667,0.1364 0.20505,0.1904 3.961,2.7227 -1.16424,-0.6679 1.91895,1.2598 0.0727,0.046 0.28005,0.1746 0.20505,0.1318 -1.3635,-0.7805 1.61302,1.1969 1.83105,1.3331 -0.2145,-0.1512 -0.41393,-0.3291 -0.64455,-0.4542 -0.085,-0.046 0.13305,0.1406 0.20505,0.2051 0.28305,0.2542 0.55072,0.5316 0.86425,0.7471 0.71865,0.4939 0.79895,0.5353 0.92285,0.6006 0.14167,0.1266 -0.51113,-0.3675 0.249,0.2343 0.51637,0.3072 0.6822,0.4983 1.17188,0.9375 0.66405,0.604 -0.051,-0.03 1.55273,1.084 0.25388,0.1764 -0.4992,-0.3613 -0.77636,-0.4981 -0.0928,-0.046 0.14317,0.15 0.21975,0.2198 0.62242,0.5674 1.12155,0.9516 0.46875,0.4395 0.86881,0.7896 1.37027,1.7283 3.00293,2.5928 0.3093,0.1637 -0.57307,-0.3917 -0.86425,-0.586 0.23317,0.297 0.54157,0.5126 0.83496,0.7471 0.0465,0.061 0.0465,0.078 0.0735,0.1172 0.20422,0.2912 -0.17078,-0.1453 0.45412,0.3662 0.73538,0.6021 2.34896,2.0461 0.52733,0.4395 0.1812,0.4308 0.5403,0.7652 0.83496,1.1279 0,0 0.015,0.015 0.015,0.015 0.11535,0.1647 0.22267,0.3327 0.3369,0.4981 l 1.08398,1.0546 c -0.18773,-0.1703 -0.73395,-0.6938 -0.55665,-0.5127 0.4761,0.4863 0.5448,0.532 0.73245,0.7032 0.0814,0.1334 0.0375,0.1042 0.29295,0.4541 2.88631,2.7467 0.35647,0.3396 0.36622,0.3516 0.29625,0.3635 0.63578,0.6926 0.96681,1.0254 0.14557,0.2285 0.35482,0.4293 0.52732,0.6446 l 0.27833,0.249 c 5.37108,15.3207 8.15559,35.4813 8.80251,62.0057 0.99893,54.0001 -0.99708,63.9956 -26.99708,90.9956 -20.125,21.875 -33.36719,29.209 -57.1289,30.0293 z"
       id="path2"
       inkscape:connector-curvature="0" />
    <path
       style="fill:none;stroke:#000000;stroke-width:7.5px;stroke-linecap:butt;stroke-linejoin:miter;stroke-opacity:1"
       d="M 412.51249,1657.9245 Z"
       id="path945"
       inkscape:connector-curvature="0" />
    <path
       style="opacity:1;fill:#800000;fill-opacity:1;stroke:none;stroke-width:7.5px;stroke-linecap:butt;stroke-linejoin:miter;stroke-opacity:1"
       d="m 235.40374,1739.0316 c 33.30051,11.7463 68.86628,17.8294 99.33106,36.665 79.01247,-16.6495 124.57708,-9.4077 159.06777,5.744 35.1623,-27.3345 78.71291,-23.3389 118.21317,-48.9279 -54.62063,-100.5051 -22.08075,-254.1387 -11.47005,-289.4238 l -6.19628,-11.4551 c -154.67479,16.0936 -269.50248,2.8418 -350.9183,-3.6325 l -6.65039,16.5821 c 30.40249,116.2147 33.75897,216.5975 -1.37698,294.4482 z"
       id="Brust"
       inkscape:connector-curvature="0"
       sodipodi:nodetypes="ccccccccc"
       onmouseover="this.style.opacity=1"
       onmouseout="this.style.opacity=0"
       onclick="newTick('Brust')"
       inkscape:label="#path947">
      <title
         id="title957">Brust</title>
    </path>
    <path
       style="fill:none;stroke:#000000;stroke-width:7.5px;stroke-linecap:butt;stroke-linejoin:miter;stroke-opacity:1"
       d="M 477.89716,1687.9174 Z"
       id="path949"
       inkscape:connector-curvature="0" />
    <path
       style="opacity:1;fill:#ff0000;fill-opacity:1;stroke:none;stroke-width:1px;stroke-linecap:butt;stroke-linejoin:miter;stroke-opacity:1"
       d="m 36.669922,47.066406 c -4.156219,1.94452 -8.484587,3.75727 -10.013672,7.722656 -1.588769,2.958107 -2.026232,6.921732 -1.953125,11.333985 -1.043019,8.263533 -2.710167,16.371414 -4.582031,24.427734 6.562646,-1.02728 11.330641,0.124639 14.978515,2.636719 l 1.390625,-6.015625 c -0.0046,0.0072 -0.01007,0.01378 -0.01367,0.02148 -0.03277,0.07103 0.0014,-0.0016 0.01953,-0.04102 l 0.144531,-0.623047 c -0.006,-0.01604 -0.02436,-0.04865 -0.01953,-0.07813 0.0085,-0.05391 0.02676,-0.103671 0.05469,-0.150391 0.0037,-0.0081 0.0061,-0.01534 0.0098,-0.02344 0.0041,-0.01053 0.0045,-0.01323 0.0078,-0.01953 0.005,-0.02052 0.0082,-0.0407 0.01563,-0.06055 -0.0067,0.104517 0.0034,-0.08966 0.0098,-0.09766 0.0084,-0.04695 0.01678,-0.09455 0.0293,-0.140625 0.0085,-0.03134 0.02767,-0.0401 0.03906,-0.06641 l 1.517579,-6.558594 c 0.81425,-5.600986 1.821314,-11.162917 1.640624,-16.96289 -0.347517,-5.101467 -0.690253,-10.203221 -3.27539,-15.304688 z"
       transform="matrix(7.5,0,0,-7.5,-48.779288,2088.5161)"
       id="rechter_Oberarm"
       inkscape:connector-curvature="0"
       onmouseover="this.style.opacity=1"
       onmouseout="this.style.opacity=0"
       onclick="newTick('rechter_Oberarm')">

      <title
         id="title1138">rechter Oberarm</title>
    </path>
    <path
       style="opacity:1;fill:#ff6600;fill-opacity:1;stroke:none;stroke-width:7.5px;stroke-linecap:butt;stroke-linejoin:miter;stroke-opacity:1"
       d="m 621.87377,1730.5522 c 23.61392,-9.8417 46.02019,-20.2872 54.30853,-37.7917 19.93665,-31.8386 31.32912,-102.8529 32.15558,-133.2994 9.05865,-24.5284 16.94801,-95.9796 26.00666,-144.8464 -44.78552,1.0224 -79.90918,-13.1381 -113.94767,-29.0039 -6.05562,45.6431 -18.12825,86.8892 -25.48043,124.74 -2.83701,37.5579 -4.42667,75.1549 -1.16929,115.76 1.61392,56.1582 14.22676,82.0695 28.12662,104.4414 z"
       id="linker_Oberarm"
       inkscape:connector-curvature="0"
       sodipodi:nodetypes="cccccccc"
       onmouseover="this.style.opacity=1"
       onmouseout="this.style.opacity=0"
       onclick="newTick('linker_Oberarm')"

       inkscape:label="#path953">
      <title
         id="title955">linker Oberarm</title>
    </path>
    <path
       style="opacity:1;fill:#d4ff2a;fill-opacity:1;stroke:none;stroke-width:7.5px;stroke-linecap:butt;stroke-linejoin:miter;stroke-opacity:1"
       d="m 317.75788,2000.4515 c 3.47357,36.7524 20.00139,67.0511 53.45334,82.3904 7.80195,12.465 90.38699,20.8951 111.72953,-3.6171 23.07297,-18.3536 38.01418,-39.5206 41.7981,-57.8742 3.4306,-33.9657 5.05753,-80.3239 -6.92075,-110.5308 -20.57797,-22.9095 -50.14454,-40.6823 -69.44117,-45.0064 -38.62912,-13.7207 -75.48181,-15.0063 -107.71048,16.0762 -20.49037,10.7325 -31.31417,43.6161 -22.90857,118.5619 z"
       id="Kopf"
       inkscape:connector-curvature="0"
       sodipodi:nodetypes="cccccccc"
       onmouseover="this.style.opacity=1"
       onmouseout="this.style.opacity=0"
       inkscape:label="#path961"
       onclick="newTick('Kopf')">
      <title
         id="title965">Kopf</title>
    </path>
    <path
       style="opacity:0.38600003;fill:none;stroke:#000000;stroke-width:7.5px;stroke-linecap:butt;stroke-linejoin:miter;stroke-opacity:1"
       d="M 435.51598,1971.5143 Z"
       id="path963"
       inkscape:connector-curvature="0" />
    <path
       style="opacity:1;fill:#abc837;fill-opacity:1;stroke:none;stroke-width:1px;stroke-linecap:butt;stroke-linejoin:miter;stroke-opacity:1"
       d="m 73.347656,27.257812 -1.49414,1.076172 c -1.327728,1.32776 -3.283088,1.956664 -5.179688,2.652344 -1.801636,0.789507 -3.71406,0.913189 -5.574219,1.351563 -2.377973,0.13504 -4.668424,0.0042 -6.65625,-1.03125 l -2.988281,-2.046875 c 1.737959,4.205213 1.483352,7.719941 0.484375,11.300781 1.850767,0.342173 3.734193,0.844338 5.525391,0.888672 2.283845,0.241373 4.567717,0.179875 6.851562,0.171875 5.003131,-0.415667 5.830857,-1.233378 7.63086,-1.957032 -0.663659,-3.92988 -0.790647,-7.957343 1.40039,-12.40625 z"
       transform="matrix(7.5,0,0,-7.5,-48.779288,2088.5161)"
       id="Hals"
       inkscape:connector-curvature="0"
       onmouseover="this.style.opacity=1"
       onmouseout="this.style.opacity=0"
       onclick="newTick('Hals')">
      <title
         id="title1140">Hals</title>
    </path>
    <path
       style="fill:none;stroke:#000000;stroke-width:7.5px;stroke-linecap:butt;stroke-linejoin:miter;stroke-opacity:1"
       d="M 435.80119,1824.6175 Z"
       id="path969"
       inkscape:connector-curvature="0" />
    <path
       style="opacity:1;fill:#800080;fill-opacity:1;stroke:none;stroke-width:7.5px;stroke-linecap:butt;stroke-linejoin:miter;stroke-opacity:1"
       d="m 410.24788,1002.4497 c -64.38024,38.7721 -126.83584,40.9761 -189.33106,43.9327 7.42182,61.4289 20.67325,119.393 31.48852,178.805 14.29549,70.8736 8.77282,133.8199 -5.8684,193.1188 61.87176,6.032 124.34347,15.6637 184.40194,10.8159 50.96183,-0.9762 99.54178,-0.5232 159.66056,-6.9935 -20.24149,-62.7873 -9.13859,-127.9857 -5.80238,-192.5867 l 28.02406,-160.1916 c -101.86796,-3.6113 -153.9094,-34.8566 -202.57324,-66.9006 z"
       id="Bauch"
       inkscape:connector-curvature="0"
       sodipodi:nodetypes="ccccccccc"
       onmouseover="this.style.opacity=1"
       onmouseout="this.style.opacity=0"
       onclick="newTick('Bauch')"
       inkscape:label="#path973">
      <title
         id="title975">Bauch/ Unterkrper</title>
    </path>
    <path
       style="opacity:0.997;fill:#ff9955;fill-opacity:1;stroke:none;stroke-width:7.5px;stroke-linecap:butt;stroke-linejoin:miter;stroke-opacity:1"
       d="m 623.39729,1373.4959 c 13.53568,6.9878 27.89231,14.0889 51.77318,22.5037 18.68696,4.709 38.51914,7.8564 61.18092,7.1452 l 8.7021,-47.1074 c -14.2834,-9.7492 -33.31174,-13.9627 -51.78427,-18.8246 -23.98341,-5.1371 -44.47717,-6.0367 -63.39732,-5.0255 z"
       id="linke_Ellbogenbeuge"
       inkscape:connector-curvature="0"
       sodipodi:nodetypes="ccccccc"
       onmouseover="this.style.opacity=1"
       onmouseout="this.style.opacity=0"
       inkscape:label="#path977"
       onclick="newTick('linke_Ellbogenbeuge')">
      <title
         id="title979">linke Ellbogenbeuge</title>
    </path>
    <path
       style="opacity:1;fill:#ffccaa;fill-opacity:1;stroke:none;stroke-width:7.5px;stroke-linecap:butt;stroke-linejoin:miter;stroke-opacity:1"
       d="m 632.12776,1320.7036 c 32.71691,-0.9077 68.28485,2.4612 115.3858,23.1296 7.45688,-41.1294 17.95723,-81.9347 20.66086,-122.1135 3.89973,-26.3215 5.98972,-51.3718 11.44852,-75.6548 -26.76766,-7.8393 -48.99266,-18.5178 -67.47075,-31.5381 -12.4668,39.8766 -33.95875,79.7533 -52.02399,119.6299 -14.92947,31.9579 -22.30926,59.7214 -28.00044,86.5469 z"
       id="linker_Unterarm"
       inkscape:connector-curvature="0"
       sodipodi:nodetypes="ccccccc"
       onmouseover="this.style.opacity=1"
       onmouseout="this.style.opacity=0"
       onclick="newTick('linker_Unterarm')"
       inkscape:label="#path981">
      <title
         id="title983">linker Unterarm</title>
    </path>
    <path
       style="opacity:1;fill:#fffd6d;fill-opacity:1;stroke:none;stroke-width:7.5px;stroke-linecap:butt;stroke-linejoin:miter;stroke-opacity:1"
       d="m 714.86216,1104.6389 c 13.99967,13.485 36.96566,22.4916 68.0127,32.2705 30.18233,-42.232 95.34441,-99.0776 81.01778,-108.815 -1.35523,-8.5725 -21.33897,-0.2101 -33.24705,0.8109 0.81169,-29.12534 6.15593,-60.51696 1.21635,-86.76667 -1.82698,-15.41567 -9.00318,-40.01386 -31.2198,-44.59966 -17.60119,-5.66097 -31.64273,22.94956 -43.78875,43.78876 0.44565,-16.54424 0.18383,-29.72802 -3.64913,-25.94888 -6.75199,0.21759 -18.40341,13.43034 -31.21972,105.41745 -4.82885,30.4023 -4.74825,55.8951 -7.12238,83.8426 z"
       id="linke_Hand"
       inkscape:connector-curvature="0"
       sodipodi:nodetypes="cccccccccc"
       inkscape:label="#path985"
       onmouseover="this.style.opacity=1"
       onclick="newTick('linke_Hand')"
       onmouseout="this.style.opacity=0">
      <title
         id="title987">linke Hand</title>
    </path>
    <path
       style="opacity:1;fill:#ff8080;fill-opacity:1;stroke:none;stroke-width:1px;stroke-linecap:butt;stroke-linejoin:miter;stroke-opacity:1"
       d="m 25.210938,91.724609 c -1.66016,-0.02057 -3.387838,0.181399 -5.457032,0.455079 l -0.773437,3.265624 c 1.567695,1.07332 3.618938,2.001554 5.644531,2.9375 3.248864,1.512495 6.119458,2.060528 9.339844,1.912108 l 0.833984,-5.423826 c -2.354792,-1.620227 -5.625585,-2.928782 -7.939453,-3.046875 -0.548463,-0.06182 -1.095052,-0.09275 -1.648437,-0.09961 z"
       transform="matrix(7.5,0,0,-7.5,-48.779288,2088.5161)"
       id="rechte_Ellbogenbeuge"
       inkscape:connector-curvature="0"
       onmouseover="this.style.opacity=1"
       onclick="newTick('rechte_Ellbogenbeuge')"
       onmouseout="this.style.opacity=0">
      <title
         id="title1142">rechte Ellbogenbeuge</title>
    </path>
    <path
       style="opacity:1;fill:#ffd5d5;fill-opacity:1;stroke:none;stroke-width:7.5px;stroke-linecap:butt;stroke-linejoin:miter;stroke-opacity:1"
       d="m 50.277172,1132.134 c 21.947274,-5.3298 41.621642,-7.9689 72.714878,-24.1255 13.64047,42.866 36.60235,85.7319 55.30998,128.5979 12.16042,29.3313 20.56508,58.6626 25.87166,87.9939 -37.12829,2.1283 -75.20882,14.4562 -113.466831,36.02 -8.436929,-33.7262 -14.591706,-73.1578 -20.804025,-112.4456 -5.323035,-38.8157 -5.037113,-78.2545 -19.625662,-116.0407 z"
       id="path1128"
       inkscape:connector-curvature="0"
       sodipodi:nodetypes="ccccccc"
       onmouseover="this.style.opacity=1"
       onclick="newTick('TODO')"

       onmouseout="this.style.opacity=0" />
    <path
       style="opacity:1;fill:#f5d5ff;fill-opacity:1;stroke:none;stroke-width:7.5px;stroke-linecap:butt;stroke-linejoin:miter;stroke-opacity:1"
       d="m 45.428542,1123.1545 c -22.841047,-26.6776 -47.1929674,-50.3334 -68.523141,-80.0327 -19.989674,-24.9051 -1.474573,-18.3064 10.7339,-16.8676 12.13462161,5.4874 16.0086149,-1.4162 18.017617,-11.1173 1.5266787,-33.48963 -2.3312481,-76.20623 8.433779,-95.83834 5.120529,-33.36709 50.599796,-29.08399 51.752731,3.83351 6.592771,37.68299 7.806531,1.186 23.764794,0.4229 19.964448,29.476 18.147528,80.73333 27.221228,121.10013 -0.53619,19.2984 -0.75115,38.3424 3.73093,53.6264 -27.19752,14.1228 -53.77289,21.6508 -75.131838,24.873 z"
       id="recht_Hand"
       inkscape:connector-curvature="0"
       sodipodi:nodetypes="cccccccccc"
       onmouseover="this.style.opacity=1"
       onmouseout="this.style.opacity=0"
       onclick="newTick('rechte_Hand')"
       inkscape:label="#path1134">
      <title
         id="title1136">rechte Hand</title>
    </path>
    <path
       style="opacity:1;fill:#6600ff;fill-opacity:1;stroke:none;stroke-width:7.5px;stroke-linecap:butt;stroke-linejoin:miter;stroke-opacity:1"
       d="m 220.14045,1036.6702 c 88.4313,0.2561 165.70209,-20.424 187.66114,-44.86823 1.80771,-79.95823 -32.47931,-154.80544 -33.06424,-244.8758 -10.37077,-67.1976 -26.89604,-144.62095 -30.8469,-211.81855 -42.2822,14.65549 -87.46616,3.19523 -131.86523,-1.20112 5.45309,109.92122 4.60656,219.84245 5.91723,329.76367 -1.97143,60.37077 -0.33632,117.13501 2.198,173.00003"
       id="rechter_Oberschenkel"
       inkscape:connector-curvature="0"
       sodipodi:nodetypes="ccccccc"
       onmouseover="this.style.opacity=1"
       onmouseout="this.style.opacity=0"
       onclick="newTick('rechter_Oberschenkel')"
       inkscape:label="#path864">
      <title
         id="title866">rechter Oberschenkel</title>
    </path>
    <path
       style="opacity:1;fill:#8080ff;fill-opacity:1;stroke:none;stroke-width:7.5px;stroke-linecap:butt;stroke-linejoin:miter;stroke-opacity:1"
       d="m 417.32307,995.75692 c 78.31784,53.79828 139.82476,64.63538 196.66993,63.55908 5.31078,-63.9452 10.47115,-128.04081 11.07463,-196.69331 -3.10117,-81.93728 -11.41017,-149.98702 -8.11864,-248.9715 l 4.96882,-78.969 c -55.12205,8.29821 -95.62088,3.59799 -129.16993,-7.2798 -0.27019,78.61912 -18.07205,146.71924 -29.15093,218.85315 -14.15842,83.16713 -23.40293,166.33425 -46.27388,249.50138 z"
       id="linker_Oberschenkel"
       inkscape:connector-curvature="0"
       sodipodi:nodetypes="cccccccc"
       onmouseover="this.style.opacity=1"
       onmouseout="this.style.opacity=0"
       onclick="newTick('linker_Oberschenkel')"
       inkscape:label="#path868">
      <title
         id="title872">linke Oberschenkel</title>
    </path>
    <path
       style="opacity:1;fill:#2ad4ff;fill-opacity:1;stroke:none;stroke-width:7.5px;stroke-linecap:butt;stroke-linejoin:miter;stroke-opacity:1"
       d="m 210.63362,514.52665 c -1.90555,-20.72223 -2.59434,-40.90504 -1.59668,-61.25978 14.26141,-1.01148 30.73644,-6.70659 44.6749,-8.16324 65.02171,-7.90322 69.26035,-2.19605 86.78017,7.18104 l 2.3877,62.9004 c -35.82299,15.31379 -84.38946,6.00406 -132.24609,-0.65842 z"
       id="rechtes_Knie"
       inkscape:connector-curvature="0"
       sodipodi:nodetypes="cccccc"
       onmouseover="this.style.opacity=1"
       onmouseout="this.style.opacity=0"
       onclick="newTick('rechtes_Knie_Hand')"
       inkscape:label="#path874">
      <title
         id="title876">rechtes Knie</title>
    </path>
    <path
       style="opacity:1;fill:#55ffdd;fill-opacity:1;stroke:none;stroke-width:7.5px;stroke-linecap:butt;stroke-linejoin:miter;stroke-opacity:1"
       d="m 210.36995,434.09207 c 71.21812,-9.77318 104.9874,-13.79114 129.53604,-3.32677 l -5.36124,-256.4502 c -22.43825,-10.23755 -51.0161,-11.54477 -86.71875,-2.48865 2.99622,88.33255 -24.21375,168.37772 -37.45605,262.26562 z"
       id="rechtes_Schinbein"
       inkscape:connector-curvature="0"
       sodipodi:nodetypes="ccccc"
       onmouseover="this.style.opacity=1"
       onmouseout="this.style.opacity=0"
       onclick="newTick('rechtes_Schinbein_Hand')"
       inkscape:label="#path878">
      <title
         id="title880">rechtes Schinbein</title>
    </path>
    <path
       style="opacity:1;fill:#00ff66;fill-opacity:1;stroke:none;stroke-width:7.5px;stroke-linecap:butt;stroke-linejoin:miter;stroke-opacity:1"
       d="m 246.4637,152.44847 c 39.7162,-6.11858 69.64597,-5.98472 87.59765,1.8018 -2.62298,-44.26096 -0.42243,-109.650505 -14.88931,-131.316145 -13.31423,-28.4765422 -44.11031,-11.702119 -72.05507,-2.47605 -16.79141,9.632248 -40.11401,21.189228 -25.75164,58.18875 11.91545,26.280005 22.73116,44.966565 25.09837,73.801645 z"
       id="rechter_Fuss"
       inkscape:connector-curvature="0"
       sodipodi:nodetypes="cccccc"
       onmouseover="this.style.opacity=1"
       onmouseout="this.style.opacity=0"
       onclick="newTick('rechter_Fuss')"
       inkscape:label="#path882">
      <title
         id="title884">rechter Fuss</title>
    </path>
    <path
       style="opacity:1;fill:#aaccff;stroke:none;stroke-width:7.5px;stroke-linecap:butt;stroke-linejoin:miter;stroke-opacity:1"
       d="m 493.26057,507.09915 c 22.07993,10.59334 49.60417,16.74527 87.83199,14.16533 13.73881,2.07914 28.0942,-3.85739 42.2168,-6.76755 1.31012,-24.49494 2.97035,-49.62007 2.24121,-70.44435 -20.84015,-14.9522 -39.51936,-19.09968 -56.9573,-17.04083 -24.2317,2.08754 -48.38254,4.0403 -73.85324,8.19285 z"
       id="linkes_Knie"
       inkscape:connector-curvature="0"
       sodipodi:nodetypes="ccccccc"
       onmouseover="this.style.opacity=1"
       onmouseout="this.style.opacity=0"
       onclick="newTick('linkes_Knie')"
       inkscape:label="#path983">
      <title
         id="title985">linkes Knie</title>
    </path>
    <path
       style="opacity:1;fill:#aaeeff;fill-opacity:1;stroke:none;stroke-width:1px;stroke-linecap:butt;stroke-linejoin:miter;stroke-opacity:1"
       d="m 89.732422,222.31445 c -3.454687,2.21956 -10.290849,1.49866 -17.212891,0.70313 l 0.71875,32.57031 c 5.249193,0.90045 8.861936,1.06925 10.441407,0.32813 0.0013,-0.001 0.0026,-0.003 0.0039,-0.004 0.01048,-0.0245 0.01882,-0.0505 0.0293,-0.0742 0.06673,-0.14138 0.156718,-0.27456 0.265625,-0.38672 0.05559,-0.0629 0.122132,-0.0967 0.195312,-0.11914 0.03386,-0.0486 0.06654,-0.0974 0.09961,-0.14648 0.09644,-0.11128 0.05565,-0.0655 0.08984,-0.11328 -0.01957,0.0366 -0.01315,0.0119 0.03125,-0.0703 -0.04962,0.10955 0.03942,-0.1738 0.05469,-0.2207 0.02475,-0.0873 0.04536,-0.17361 0.08008,-0.25781 0.0078,-0.0139 0.0064,-0.0205 0.0098,-0.0312 l 0.140626,-1.55469 c -4.5e-5,-0.0391 -7.3e-5,-0.0781 0,-0.11719 9.6e-5,-0.0769 -7.9e-5,-0.04 0,-0.11133 1e-4,-0.0946 0.01845,-0.1703 0.04297,-0.23632 l 0.796875,-8.81836 c 1.455318,-7.16417 3.440872,-14.85898 4.212891,-21.33985 z"
       transform="matrix(7.5,0,0,-7.5,-48.779288,2088.5161)"
       id="linkes_Schinbein"
       inkscape:connector-curvature="0"
       onmouseover="this.style.opacity=1"
       onclick="newTick('linkes_Schinbein')"
       onmouseout="this.style.opacity=0">
      <title
         id="title1037">linkes Schinbein</title>
    </path>
    <path
       style="opacity:1;fill:#37abc8;fill-opacity:1;stroke:none;stroke-width:7.5px;stroke-linecap:butt;stroke-linejoin:miter;stroke-opacity:1"
       d="m 501.09749,151.8292 c 33.99965,-5.81525 65.90239,-8.60165 88.0957,2.6367 3.76508,-36.19724 11.49162,-42.68361 17.62565,-61.11375 C 622.30216,62.625301 616.35757,42.039896 598.1239,27.2707 586.72556,19.779255 546.17374,2.159781 534.77509,8.887075 c -25.1781,1.006978 -27.14586,30.685784 -29.06593,60.11925 -4.28921,27.073789 -3.27141,55.159295 -4.61167,82.822875 z"
       id="linker_Fuss"
       inkscape:connector-curvature="0"
       sodipodi:nodetypes="ccccccc"
       onmouseover="this.style.opacity=1"
       onmouseout="this.style.opacity=0"
       onclick="newTick('linker_Fuss')"
       inkscape:label="#path1033">
      <title
         id="title1035">linker Fuss</title>
    </path>
  </g>
</svg>
